# xmcd CD database file
#
# Track frame offsets:
#	150
#	18660
#	36785
#	56202
#	72920
#	91540
#	106032
#	122600
#	137097
#	156470
#	175577
#	191577
#	207135
#	222422
#	241950
#	262272
#	283047
#	299700
#	320565
#
# Disc length: 4525 seconds
#
# Revision: 0
# Processed by: cddbd v1.5.1PL0 Copyright (c) Steve Scherf et al.
# Submitted via: CDex 1.60beta1
#
DISCID=2511ab13
DTITLE=中森明菜 - 中森明菜コレクション 1982〜1991 [CD1]
DYEAR=1996
DGENRE=Rock
TTITLE0=スローモーション
TTITLE1=条件反射
TTITLE2=あなたのポートレート
TTITLE3=Bon Voyage
TTITLE4=イマージュの翳り
TTITLE5=Ｔシャツ・サンセット
TTITLE6=銀河伝説
TTITLE7=Ａ型メランコリー
TTITLE8=ひとかけらのエメラルド
TTITLE9=ダウンタウンすと〜り〜
TTITLE10=少女Ａ
TTITLE11=夢判断
TTITLE12=キャンセル！
TTITLE13=脆い午後
TTITLE14=哀愁魔術（マジック）
TTITLE15=咲きほこる花に……
TTITLE16=ヨコハマA・KU・MA
TTITLE17=メルヘン・ロケーション
TTITLE18=第七感（セッティエーム・サンス）
EXTD=YEAR: 1996
EXTT0=
EXTT1=
EXTT2=
EXTT3=
EXTT4=
EXTT5=
EXTT6=
EXTT7=
EXTT8=
EXTT9=
EXTT10=
EXTT11=
EXTT12=
EXTT13=
EXTT14=
EXTT15=
EXTT16=
EXTT17=
EXTT18=
PLAYORDER=
